<svg xmlns="http://www.w3.org/2000/svg" width="40" height="40" viewBox="0 0 40.812 57.454">
  <g id="Group_9" data-name="Group 9" transform="translate(-1356.768 -639.083)">
    <g id="bebo-logo" transform="translate(1356.768 639.083)">
      <path id="Path_6" data-name="Path 6" d="M23.682,16.636a20.289,20.289,0,0,0-11.3,3.421V5.026A4.766,4.766,0,0,0,7.673,0c-2.776,0-4.4,2.25-4.4,5.026V37.044a20.406,20.406,0,1,0,20.4-20.407Zm0,31.711a11.3,11.3,0,1,1,11.3-11.3A11.3,11.3,0,0,1,23.682,48.347Z" transform="translate(-3.277 0)" fill="#16697a"/>
    </g>
    <circle id="Ellipse_1" data-name="Ellipse 1" cx="12.5" cy="12.5" r="12.5" transform="translate(1364.359 663.913)" fill="#db6400"/>
    <g id="Ellipse_2" data-name="Ellipse 2" transform="translate(1370.359 669.913)" fill="#fff" stroke="#fff" stroke-width="1">
      <circle cx="6.5" cy="6.5" r="6.5" stroke="none"/>
      <circle cx="6.5" cy="6.5" r="6" fill="none"/>
    </g>
  </g>
</svg>
