<svg xmlns="http://www.w3.org/2000/svg" width="40" height="40" viewBox="0 0 42.296 42.296">
  <g id="facebook" transform="translate(-167.125 -167.125)">
    <g id="Group_51" data-name="Group 51" transform="translate(167.125 167.125)">
      <path id="Path_21" data-name="Path 21" d="M37.34,0H4.957A4.962,4.962,0,0,0,0,4.957V37.34A4.962,4.962,0,0,0,4.957,42.3H37.34A4.962,4.962,0,0,0,42.3,37.34V4.957A4.962,4.962,0,0,0,37.34,0Zm1.652,37.34a1.654,1.654,0,0,1-1.652,1.652H27.922V25.527h5.1L33.87,20.4H27.922V16.852A2.437,2.437,0,0,1,30.4,14.374h3.387V9.252H30.4a7.6,7.6,0,0,0-7.6,7.615V20.4H17.844v5.122H22.8V38.992H4.957A1.654,1.654,0,0,1,3.3,37.34V4.957A1.654,1.654,0,0,1,4.957,3.3H37.34a1.654,1.654,0,0,1,1.652,1.652Z" fill="#fff"/>
    </g>
  </g>
</svg>
