<svg xmlns="http://www.w3.org/2000/svg" width="40" height="40" viewBox="0 0 42.294 42.295">
  <path id="instagram" d="M21.564,42.3h-.421c-3.315.008-6.379-.076-9.358-.258a12.509,12.509,0,0,1-7.21-2.729A11.574,11.574,0,0,1,.686,33.031a27.822,27.822,0,0,1-.638-6.644C.027,24.843,0,23.013,0,21.153s.026-3.7.048-5.242A27.825,27.825,0,0,1,.686,9.267,11.574,11.574,0,0,1,4.575,2.989,12.509,12.509,0,0,1,11.786.259C14.765.078,17.829-.006,21.151,0c3.316-.007,6.379.076,9.358.258a12.509,12.509,0,0,1,7.21,2.729,11.572,11.572,0,0,1,3.889,6.279,27.824,27.824,0,0,1,.638,6.644c.021,1.544.044,3.374.048,5.234v.008c0,1.861-.026,3.69-.048,5.234a27.808,27.808,0,0,1-.638,6.644,11.572,11.572,0,0,1-3.889,6.279,12.509,12.509,0,0,1-7.21,2.729c-2.853.174-5.784.258-8.945.258Zm-.421-3.3c3.261.008,6.256-.075,9.165-.251a9.1,9.1,0,0,0,5.323-1.992,8.342,8.342,0,0,0,2.775-4.535,25.312,25.312,0,0,0,.536-5.872c.021-1.534.043-3.35.047-5.193s-.026-3.659-.047-5.193a25.316,25.316,0,0,0-.536-5.872,8.342,8.342,0,0,0-2.775-4.535,9.1,9.1,0,0,0-5.323-1.992C27.4,3.38,24.4,3.3,21.151,3.306s-6.256.075-9.165.252A9.1,9.1,0,0,0,6.663,5.549a8.342,8.342,0,0,0-2.775,4.535,25.315,25.315,0,0,0-.536,5.872c-.021,1.535-.043,3.353-.047,5.2s.026,3.654.047,5.189a25.312,25.312,0,0,0,.536,5.872,8.342,8.342,0,0,0,2.775,4.535,9.1,9.1,0,0,0,5.323,1.992C14.9,38.917,17.891,39,21.143,38.992Zm-.079-7.517A10.326,10.326,0,1,1,31.39,21.149,10.338,10.338,0,0,1,21.064,31.475Zm0-17.348a7.022,7.022,0,1,0,7.022,7.022A7.03,7.03,0,0,0,21.064,14.127ZM32.547,7.519A2.478,2.478,0,1,0,35.025,10,2.478,2.478,0,0,0,32.547,7.519Zm0,0" transform="translate(0 -0.001)" fill="#fff"/>
</svg>
