<svg id="shoulder-wheel" xmlns="http://www.w3.org/2000/svg" width="40" height="40" viewBox="0 0 59.83 59.83">
  <path id="Path_4" data-name="Path 4" d="M51.068,8.762A29.915,29.915,0,0,0,8.762,51.068,29.915,29.915,0,0,0,51.068,8.762ZM48.589,48.589A26.409,26.409,0,1,1,11.241,11.241,26.409,26.409,0,1,1,48.589,48.589Z" transform="translate(0 0)" fill="#16697a"/>
  <path id="Path_5" data-name="Path 5" d="M82.9,60a22.9,22.9,0,1,0,22.9,22.9A22.929,22.929,0,0,0,82.9,60Zm6.038,26.462a6.99,6.99,0,0,0,0-7.117L97.8,70.489A19.31,19.31,0,0,1,102.3,82.9a19.564,19.564,0,0,1-2.446,9.422A18.689,18.689,0,0,1,97.8,95.318ZM79.4,82.9A3.506,3.506,0,1,1,82.9,86.409,3.51,3.51,0,0,1,79.4,82.9Zm15.92-14.893-8.856,8.856a6.989,6.989,0,0,0-7.117,0L70.489,68.01a19.358,19.358,0,0,1,24.828,0ZM68.011,70.489l8.856,8.855a6.99,6.99,0,0,0,0,7.118L68.01,95.318a19.358,19.358,0,0,1,0-24.829ZM70.489,97.8l8.856-8.856a6.989,6.989,0,0,0,7.117,0L95.318,97.8a19.358,19.358,0,0,1-24.828,0Z" transform="translate(-52.989 -52.989)" fill="#db6400"/>
</svg>
