<svg xmlns="http://www.w3.org/2000/svg" width="55.842" height="42.296" viewBox="0 0 55.842 42.296">
  <g id="youtube" transform="translate(0.001 0)">
    <path id="Path_19" data-name="Path 19" d="M206.637,113.555,194.3,106.8a2.266,2.266,0,0,0-3.354,1.988v13.384a2.262,2.262,0,0,0,3.339,2l12.337-6.634a2.266,2.266,0,0,0,.014-3.984Zm-12.418,6.938v-10l9.22,5.045Zm0,0" transform="translate(-170.121 -94.905)" fill="#fff"/>
    <path id="Path_20" data-name="Path 20" d="M55.43,9.982l0-.026c-.047-.449-.518-4.447-2.462-6.481A9.087,9.087,0,0,0,46.948.654c-.1-.012-.194-.022-.277-.033l-.1-.01C39.191.074,28.042,0,27.93,0h-.02C27.8,0,16.65.074,9.2.611l-.1.01c-.079.011-.167.02-.262.032A8.858,8.858,0,0,0,2.857,3.562C1.006,5.573.471,9.486.416,9.925L.41,9.982C.393,10.169,0,14.622,0,19.092v4.179c0,4.47.394,8.923.411,9.11l0,.028c.047.442.518,4.367,2.452,6.4a9.273,9.273,0,0,0,6.22,2.782c.227.026.423.048.556.072l.129.018c4.263.406,17.627.605,18.194.613H28c.112,0,11.26-.074,18.643-.611l.1-.01c.093-.012.2-.023.313-.035A8.653,8.653,0,0,0,52.983,38.8c1.851-2.012,2.387-5.925,2.441-6.364l.006-.057c.017-.187.411-4.64.411-9.11V19.092c0-4.47-.395-8.922-.411-9.11ZM52.569,23.271c0,4.137-.361,8.4-.4,8.789-.139,1.077-.7,3.553-1.605,4.533a5.382,5.382,0,0,1-3.862,1.792c-.126.013-.243.026-.349.039-7.14.516-17.869.6-18.363.6-.554-.008-13.723-.21-17.856-.593-.212-.035-.441-.061-.682-.088a6.119,6.119,0,0,1-4.185-1.748l-.03-.032c-.886-.923-1.434-3.238-1.574-4.488-.026-.3-.4-4.607-.4-8.8V19.092c0-4.133.36-8.389.4-8.788.166-1.269.741-3.594,1.605-4.534A5.646,5.646,0,0,1,9.216,3.9l.267-.032c7.244-.519,18.05-.6,18.437-.6s11.189.08,18.369.6l.288.034a5.86,5.86,0,0,1,4.008,1.815l.013.014c.886.923,1.434,3.278,1.574,4.554.025.279.4,4.6.4,8.8Zm0,0" fill="#fff"/>
  </g>
</svg>
